G04 MADE WITH FRITZING*
G04 WWW.FRITZING.ORG*
G04 DOUBLE SIDED*
G04 HOLES PLATED*
G04 CONTOUR ON CENTER OF CONTOUR VECTOR*
%ASAXBY*%
%FSLAX23Y23*%
%MOIN*%
%OFA0B0*%
%SFA1.0B1.0*%
%ADD10C,0.085000*%
%ADD11C,0.085361*%
%ADD12C,0.090000*%
%ADD13C,0.088000*%
%ADD14C,0.049370*%
%ADD15C,0.096614*%
%ADD16C,0.072992*%
%ADD17R,0.090000X0.090000*%
%ADD18R,0.085000X0.085000*%
%ADD19R,0.072992X0.072992*%
%LNMASK1*%
G90*
G70*
G54D10*
X2284Y1041D03*
X2284Y1441D03*
G54D11*
X334Y2041D03*
X434Y2041D03*
X534Y2041D03*
X634Y2041D03*
X734Y2041D03*
X834Y2041D03*
X934Y2041D03*
X1034Y2041D03*
X1134Y2041D03*
X1234Y2041D03*
X1334Y2041D03*
X1434Y2041D03*
X1534Y2041D03*
X1634Y2041D03*
X1734Y2041D03*
X1834Y2041D03*
X1934Y2041D03*
X2034Y2041D03*
X2134Y2041D03*
X2234Y2041D03*
X2234Y2141D03*
X2134Y2141D03*
X2034Y2141D03*
X1934Y2141D03*
X1834Y2141D03*
X1734Y2141D03*
X1634Y2141D03*
X1534Y2141D03*
X1434Y2141D03*
X1334Y2141D03*
X1234Y2141D03*
X1134Y2141D03*
X1034Y2141D03*
X934Y2141D03*
X834Y2141D03*
X734Y2141D03*
X634Y2141D03*
X534Y2141D03*
X434Y2141D03*
X334Y2141D03*
G54D10*
X2384Y1041D03*
X2384Y1441D03*
G54D12*
X184Y1691D03*
X184Y1491D03*
X184Y1291D03*
G54D10*
X1684Y1541D03*
X1684Y1841D03*
X1784Y1541D03*
X1784Y1841D03*
X1884Y1541D03*
X1884Y1841D03*
X1984Y1541D03*
X1984Y1841D03*
X2084Y1541D03*
X2084Y1841D03*
X2184Y1541D03*
X2184Y1841D03*
X2284Y1541D03*
X2284Y1841D03*
X2384Y1541D03*
X2384Y1841D03*
G54D13*
X1834Y541D03*
X1734Y541D03*
G54D14*
X2154Y1691D03*
G54D13*
X1834Y841D03*
X1734Y841D03*
G54D14*
X284Y1391D03*
G54D13*
X2434Y841D03*
X2334Y841D03*
G54D14*
X1132Y1793D03*
G54D10*
X984Y541D03*
X1384Y541D03*
G54D15*
X2426Y145D03*
X142Y145D03*
X142Y2074D03*
X2427Y2074D03*
G54D10*
X984Y641D03*
X1384Y641D03*
X984Y441D03*
X1384Y441D03*
X984Y741D03*
X1384Y741D03*
X2290Y91D03*
X2034Y91D03*
X2290Y268D03*
X2034Y268D03*
X1490Y91D03*
X1234Y91D03*
X1490Y268D03*
X1234Y268D03*
X1090Y91D03*
X834Y91D03*
X1090Y268D03*
X834Y268D03*
X1890Y91D03*
X1634Y91D03*
X1890Y268D03*
X1634Y268D03*
X135Y891D03*
X135Y991D03*
X135Y1091D03*
X485Y1291D03*
X485Y1691D03*
G54D13*
X1234Y1391D03*
X1134Y1391D03*
X1034Y1391D03*
X934Y1391D03*
X1234Y1291D03*
X1134Y1291D03*
X1034Y1291D03*
X934Y1291D03*
G54D10*
X2084Y1041D03*
X2084Y1441D03*
X1984Y1041D03*
X1984Y1441D03*
X1884Y1041D03*
X1884Y1441D03*
X1784Y1041D03*
X1784Y1441D03*
X1684Y1041D03*
X1684Y1441D03*
G54D16*
X134Y389D03*
X134Y291D03*
X134Y639D03*
X134Y541D03*
X384Y389D03*
X384Y291D03*
X384Y639D03*
X384Y541D03*
G54D13*
X385Y1091D03*
X385Y991D03*
X385Y891D03*
G54D10*
X2184Y1041D03*
X2184Y1441D03*
G54D13*
X2134Y541D03*
X2034Y541D03*
X2134Y841D03*
X2034Y841D03*
X2434Y541D03*
X2334Y541D03*
G54D17*
X184Y1691D03*
G54D18*
X1684Y1541D03*
G54D19*
X134Y389D03*
X134Y639D03*
X384Y389D03*
X384Y639D03*
G04 End of Mask1*
M02*