; NON-PLATED HOLES START AT T1
; THROUGH (PLATED) HOLES START AT T100
M48
INCH
T1C0.086614
T100C0.031497
T101C0.038000
T102C0.040000
T103C0.040639
T104C0.015748
T105C0.035000
%
T1
X024260Y001451
X024271Y020740
X001416Y020740
X001416Y001451
T100
X001338Y006391
X001338Y005407
X003838Y006391
X003838Y005407
X001338Y003891
X001338Y002907
X003838Y003891
X003838Y002907
T101
X009338Y012907
X012338Y012907
X018338Y008407
X021338Y008407
X011338Y012907
X018338Y005407
X021338Y005407
X003849Y009907
X010338Y013907
X003849Y010907
X024338Y008407
X023338Y008407
X024338Y005407
X003849Y008907
X023338Y005407
X017338Y008407
X020338Y008407
X010338Y012907
X009338Y013907
X017338Y005407
X020338Y005407
X012338Y013907
X011338Y013907
T102
X001838Y016907
X001838Y014907
X001838Y012907
T103
X018338Y020407
X004338Y021407
X006338Y021407
X003338Y021407
X005338Y021407
X007338Y021407
X009338Y021407
X008338Y021407
X022338Y020407
X020338Y020407
X021338Y020407
X010338Y021407
X012338Y021407
X014338Y021407
X016338Y021407
X011338Y021407
X013338Y021407
X015338Y021407
X017338Y021407
X019338Y021407
X018338Y021407
X020338Y021407
X022338Y021407
X021338Y021407
X006338Y020407
X004338Y020407
X009338Y020407
X007338Y020407
X005338Y020407
X003338Y020407
X008338Y020407
X016338Y020407
X014338Y020407
X012338Y020407
X010338Y020407
X019338Y020407
X017338Y020407
X015338Y020407
X013338Y020407
X011338Y020407
T104
X002838Y013907
X011319Y017925
X021542Y016907
T105
X018838Y018407
X016838Y018407
X022838Y015407
X020838Y015407
X019838Y018407
X017838Y018407
X016338Y000907
X012338Y000907
X009838Y006407
X018897Y002678
X010897Y002678
X014897Y002678
X023838Y018407
X021838Y018407
X022838Y018407
X020838Y018407
X004849Y012907
X020338Y000907
X013838Y006407
X016838Y014407
X018838Y014407
X009838Y004407
X008338Y002678
X017838Y014407
X019838Y014407
X001349Y008907
X022897Y002678
X013838Y004407
X016338Y002678
X012338Y002678
X021838Y014407
X023838Y014407
X009838Y007407
X020838Y014407
X022838Y014407
X016838Y010407
X018838Y010407
X018897Y000907
X010897Y000907
X014897Y000907
X017838Y010407
X019838Y010407
X013838Y007407
X018838Y015407
X016838Y015407
X009838Y005407
X020338Y002678
X019838Y015407
X017838Y015407
X001349Y009907
X001349Y010907
X008338Y000907
X021838Y010407
X023838Y010407
X013838Y005407
X004849Y016907
X020838Y010407
X022838Y010407
X023838Y015407
X021838Y015407
X022897Y000907
T00
M30
